<svg xmlns="http://www.w3.org/2000/svg" xmlns:xlink="http://www.w3.org/1999/xlink" width="470.518" height="337.546" viewBox="0 0 470.518 337.546">
  <defs>
    <linearGradient id="linear-gradient" x1="0.5" x2="0.5" y2="1" gradientUnits="objectBoundingBox">
      <stop offset="0" stop-color="#04f"/>
      <stop offset="1" stop-color="#209eff"/>
    </linearGradient>
    <linearGradient id="linear-gradient-2" x1="126.523" y1="-117.906" x2="126.523" y2="-119.005" gradientUnits="objectBoundingBox">
      <stop offset="0.005" stop-color="#3c6127"/>
      <stop offset="1" stop-color="#639c38"/>
    </linearGradient>
    <linearGradient id="linear-gradient-3" x1="-0.222" y1="0.5" x2="0.045" y2="0.5" gradientUnits="objectBoundingBox">
      <stop offset="0" stop-color="#c2c2c2"/>
      <stop offset="1" stop-color="#dedede"/>
    </linearGradient>
    <linearGradient id="linear-gradient-4" x1="0.5" x2="0.5" y2="1" gradientUnits="objectBoundingBox">
      <stop offset="0" stop-color="#f94e3b"/>
      <stop offset="1" stop-color="#ffce0a"/>
    </linearGradient>
    <linearGradient id="linear-gradient-12" y1="0.5" x2="1" y2="0.5" gradientUnits="objectBoundingBox">
      <stop offset="0" stop-color="#ff9340"/>
      <stop offset="1" stop-color="#ffce45"/>
    </linearGradient>
    <linearGradient id="linear-gradient-13" y1="0.5" x2="1" y2="0.5" gradientUnits="objectBoundingBox">
      <stop offset="0" stop-color="#f58631"/>
      <stop offset="1" stop-color="#f2c23f"/>
    </linearGradient>
    <linearGradient id="linear-gradient-21" x1="12.54" y1="-208.072" x2="13.544" y2="-208.072" xlink:href="#linear-gradient-12"/>
    <linearGradient id="linear-gradient-28" y1="0.5" x2="1" y2="0.5" gradientUnits="objectBoundingBox">
      <stop offset="0" stop-color="#d7e3f5"/>
      <stop offset="1" stop-color="#f2fffe"/>
    </linearGradient>
  </defs>
  <g id="Сгруппировать_8421" data-name="Сгруппировать 8421" transform="translate(-757.678 -118.092)">
    <g id="Сгруппировать_3223" data-name="Сгруппировать 3223" transform="translate(692.288 26.536)">
      <g id="Сгруппировать_3061" data-name="Сгруппировать 3061" transform="translate(155.522 103.278)">
        <path id="Контур_14023" data-name="Контур 14023" d="M197.009,176.367c-7.98,10.379-.111,42.113,1.1,46.753.1.37.153.569.153.569s-.609-.352-1.661-1.013c-6.9-4.374-32.718-22.314-26.978-42.859,6.62-23.663-7.007-19.011-16.651-41.275s12.266-35.924,12.266-35.924C190.711,121.961,205.627,165.16,197.009,176.367Z" transform="translate(-150.516 -102.618)" fill="#3c3"/>
        <g id="Сгруппировать_3060" data-name="Сгруппировать 3060" transform="translate(21.603 30.952)">
          <path id="Контур_14024" data-name="Контур 14024" d="M197.073,221.989s-.609-.352-1.661-1.013c-.271-.421-.541-.846-.812-1.272-5.3-8.357-11.743-19.746-12.368-26.549a103.628,103.628,0,0,1,.008-13.359c.4-9.543.822-19.413-3.88-24.883-7.187-8.345-7.425-22.434-7.428-23.031l1.05-.013c0,.144.241,14.308,7.172,22.362,4.976,5.777,4.55,15.858,4.137,25.611a102.774,102.774,0,0,0-.014,13.216c.62,6.687,7.361,18.673,13.642,28.361C197.02,221.79,197.073,221.989,197.073,221.989Z" transform="translate(-170.932 -131.87)" fill="#3c3"/>
        </g>
      </g>
      <g id="Сгруппировать_3063" data-name="Сгруппировать 3063" transform="translate(143.016 145.785)">
        <path id="Контур_14025" data-name="Контур 14025" d="M199.519,200.008c-2.873,11.3,3.221,18.143,5.2,20,.362.344.589.517.589.517a10.051,10.051,0,0,1-1.78-.113c-8.567-1.2-30.667-11.276-33.263-25.718-2.8-15.591-15.561-6.951-26.1-19.937-14.326-17.642,4.059-31.972,4.059-31.972-3.932,7.45,8.05,25.72,23.174,29.363S202.921,186.613,199.519,200.008Z" transform="translate(-138.697 -142.79)" fill="#3c3"/>
        <g id="Сгруппировать_3062" data-name="Сгруппировать 3062" transform="translate(13.028 26.199)">
          <path id="Контур_14026" data-name="Контур 14026" d="M183.826,197.617c1.759,5.476,3.415,10.643,7.966,12.9A76.653,76.653,0,0,1,204,218.574c.362.344.589.517.589.517a10.051,10.051,0,0,1-1.78-.113,73.4,73.4,0,0,0-11.492-7.521c-4.941-2.454-6.665-7.829-8.491-13.52-2.071-6.451-4.213-13.129-11.294-16.112-13.526-5.688-20.452-13.5-20.523-13.58l.791-.7c.063.078,6.851,7.717,20.139,13.311C179.468,184.028,181.687,190.936,183.826,197.617Z" transform="translate(-151.01 -167.55)" fill="#3c3"/>
        </g>
      </g>
      <g id="Сгруппировать_3064" data-name="Сгруппировать 3064" transform="translate(133.877 112.473)">
        <path id="Контур_14027" data-name="Контур 14027" d="M130.093,157.762l-.033-.525c.084-.005,8.422-.622,11.3-8.247a35.3,35.3,0,0,0,1.453-5.688c1.325-6.678,2.694-13.582,15.693-18.285,8.277-3,14.433-2.481,19.381-2.068,7.591.634,12.608,1.053,19.007-11.64l.469.236c-6.558,13.011-11.715,12.58-19.519,11.928-4.9-.409-10.99-.917-19.158,2.037-12.72,4.6-14.06,11.36-15.357,17.9a35.839,35.839,0,0,1-1.476,5.771C138.851,157.124,130.18,157.756,130.093,157.762Z" transform="translate(-130.06 -111.308)" fill="#49aef0"/>
      </g>
      <g id="Сгруппировать_3065" data-name="Сгруппировать 3065" transform="translate(110.853 215.91)">
        <path id="Контур_14028" data-name="Контур 14028" d="M142.315,243.076H108.3V209.063h34.014Zm-32.964-1.051h31.913V210.114H109.352Z" transform="translate(-108.301 -209.063)" fill="#a1d4ff"/>
      </g>
      <g id="Сгруппировать_3068" data-name="Сгруппировать 3068" transform="translate(119.646 224.702)">
        <g id="Сгруппировать_3066" data-name="Сгруппировать 3066" transform="translate(7.69)">
          <rect id="Прямоугольник_1149" data-name="Прямоугольник 1149" width="1.051" height="16.429" fill="#a1d4ff"/>
        </g>
        <g id="Сгруппировать_3067" data-name="Сгруппировать 3067" transform="translate(0 7.689)">
          <rect id="Прямоугольник_1150" data-name="Прямоугольник 1150" width="16.429" height="1.051" fill="#a1d4ff"/>
        </g>
      </g>
      <g id="Сгруппировать_3070" data-name="Сгруппировать 3070" transform="translate(73.532 157.645)">
        <path id="Контур_14029" data-name="Контур 14029" d="M131.19,154.376,116.58,154a3.692,3.692,0,0,0-2.315.743L74.493,184.776a3.685,3.685,0,0,0-.72,5.16l10.974,14.531a3.683,3.683,0,0,0,5.159.721l39.772-30.034a3.684,3.684,0,0,0,1.348-2.023l3.637-14.156A3.685,3.685,0,0,0,131.19,154.376Zm.978,5.342a1.971,1.971,0,1,1,.386-2.761A1.971,1.971,0,0,1,132.168,159.718Z" transform="translate(-73.03 -153.998)" fill="url(#linear-gradient)"/>
        <text id="Sell" transform="matrix(0.839, -0.545, 0.545, 0.839, 20.252, 39.315)" fill="#fff" font-size="18" font-family="Lato-Regular, Lato"><tspan x="0" y="0">Sell</tspan></text>
      </g>
      <g id="Сгруппировать_3072" data-name="Сгруппировать 3072" transform="translate(368.66 189.583)">
        <path id="Контур_14034" data-name="Контур 14034" d="M406.337,251.273c-21.542,4.283-42.671,17.85-46.2,20.186-.339.224-.514.345-.514.345s-.242-.273-.649-.8c-2.094-2.759-8.446-12.521-6.738-27.684,2.036-18.079,12.126-25.028,46.437-28.848,24.909-2.775,25.251-29.8,25.259-30.289C442.823,220.8,424.856,247.6,406.337,251.273Z" transform="translate(-351.946 -184.182)" fill="#3c3"/>
        <g id="Сгруппировать_3071" data-name="Сгруппировать 3071" transform="translate(6.869 40.52)">
          <path id="Контур_14035" data-name="Контур 14035" d="M368.469,243.282c-10.423,9.028-8.983,23.829-8.712,25.952-.339.224-.514.345-.514.345s-.242-.273-.649-.8c-.356-3.63-.976-17.555,9.151-26.335,6.067-5.258,16.005-8.522,24.778-11.4,8.017-2.636,15.584-5.12,18.369-8.561l.856.7c-2.988,3.686-10.35,6.106-18.876,8.909C384.2,234.935,374.367,238.169,368.469,243.282Z" transform="translate(-358.437 -222.476)" fill="#3c3"/>
        </g>
      </g>
      <g id="Сгруппировать_3074" data-name="Сгруппировать 3074" transform="translate(371.964 185.4)">
        <path id="Контур_14036" data-name="Контур 14036" d="M374.782,231.707c-6.065,5.559-12.208,9.568-15.987,8.135a4.035,4.035,0,0,1-.639-.307c-2.227-1.324-3.439-4.949-3-11.875,1.181-18.433,12.073-22.807,21.889-29.626,9.693-6.731,4.2-17.53,4.06-17.8C398.915,203.774,385.062,222.277,374.782,231.707Z" transform="translate(-355.069 -180.229)" fill="#609a3e"/>
        <g id="Сгруппировать_3073" data-name="Сгруппировать 3073" transform="translate(3.087 25.78)">
          <path id="Контур_14037" data-name="Контур 14037" d="M358.625,238.425a4.035,4.035,0,0,1-.639-.307c.858-3.667,2.881-10.813,6.389-15.007a69.007,69.007,0,0,1,5.733-5.8c3.965-3.709,8.064-7.549,10.488-12.722l.621.289c-2.482,5.293-6.629,9.175-10.643,12.931a66.769,66.769,0,0,0-5.674,5.736C361.478,227.639,359.459,234.85,358.625,238.425Z" transform="translate(-357.986 -204.593)" fill="url(#linear-gradient-2)"/>
        </g>
      </g>
      <g id="Сгруппировать_3075" data-name="Сгруппировать 3075" transform="translate(192.041 113.049)">
        <path id="Прямоугольник_1153" data-name="Прямоугольник 1153" d="M10.275,0H178.5a10.276,10.276,0,0,1,10.276,10.276v218.66A10.276,10.276,0,0,1,178.5,239.212H10.276A10.276,10.276,0,0,1,0,228.936V10.275A10.275,10.275,0,0,1,10.275,0Z" transform="translate(188.778 239.212) rotate(180)" fill="url(#linear-gradient-3)"/>
      </g>
      <rect id="Прямоугольник_1154" data-name="Прямоугольник 1154" width="167.058" height="230.668" transform="translate(202.902 98.212)" fill="#fff"/>
      <path id="Контур_14038" data-name="Контур 14038" d="M195.293,91.54v22.466s4.479,6.33,9.827,0h9.827s4.479,6.33,9.827,0H234.6s4.479,6.33,9.828,0h9.827s4.479,6.33,9.827,0h9.827s4.479,6.33,9.827,0h9.827s4.479,6.33,9.827,0h9.827s4.479,6.33,9.827,0h9.828s4.478,6.33,9.827,0h9.827s4.478,6.33,9.827,0V91.54Z" transform="translate(7.609 0.016)" fill="#49aef0"/>
      <g id="Сгруппировать_3076" data-name="Сгруппировать 3076" transform="translate(212.728 91.556)">
        <path id="Контур_14039" data-name="Контур 14039" d="M204.58,114.006s4.479,6.33,9.827,0V91.54H204.58Z" transform="translate(-204.58 -91.54)" fill="#4659c3"/>
        <path id="Контур_14040" data-name="Контур 14040" d="M223.154,114.006s4.479,6.33,9.827,0V91.54h-9.827Z" transform="translate(-203.5 -91.54)" fill="#4659c3"/>
        <path id="Контур_14041" data-name="Контур 14041" d="M241.729,114.006s4.478,6.33,9.827,0V91.54h-9.827Z" transform="translate(-202.421 -91.54)" fill="#4659c3"/>
        <path id="Контур_14042" data-name="Контур 14042" d="M260.3,114.006s4.479,6.33,9.827,0V91.54H260.3Z" transform="translate(-201.341 -91.54)" fill="#4659c3"/>
        <path id="Контур_14043" data-name="Контур 14043" d="M278.877,114.006s4.479,6.33,9.827,0V91.54h-9.827Z" transform="translate(-200.262 -91.54)" fill="#4659c3"/>
        <path id="Контур_14044" data-name="Контур 14044" d="M297.451,114.006s4.479,6.33,9.827,0V91.54h-9.827Z" transform="translate(-199.182 -91.54)" fill="#4659c3"/>
        <path id="Контур_14045" data-name="Контур 14045" d="M316.025,114.006s4.479,6.33,9.828,0V91.54h-9.828Z" transform="translate(-198.102 -91.54)" fill="#4659c3"/>
        <path id="Контур_14046" data-name="Контур 14046" d="M334.6,91.54v22.466s4.478,6.33,9.827,0V91.54Z" transform="translate(-197.023 -91.54)" fill="#4659c3"/>
      </g>
      <path id="Контур_14071" data-name="Контур 14071" d="M280.677,326.59a6.109,6.109,0,1,1-6.109-6.108A6.108,6.108,0,0,1,280.677,326.59Z" transform="translate(11.861 13.324)" fill="#a1a1a1"/>
      <path id="Контур_14072" data-name="Контур 14072" d="M204.71,283.974v.641h8.742l1.425,6.281,2.455,11.4v.407h12.932l-.277,1.161H218.529v.642h.676a1.524,1.524,0,1,0,1.051,0h8.568a1.524,1.524,0,1,0,1.05,0h.621l.432-1.8h1.7v-.407l3-13.925v-.814H214.778l-.813-3.582Zm24.638,21.079a.881.881,0,1,1-.881.88A.881.881,0,0,1,229.348,305.053Zm-9.617,0a.881.881,0,1,1-.881.88A.881.881,0,0,1,219.731,305.053Zm7.689-7.942h-4.882l-.286-3.964H227.7Zm1-3.964h5.445l-.854,3.964h-4.876Zm-6.511-4.777h6.138l-.285,3.964h-5.569Zm-.431,3.964h-5.561l-.854-3.964h6.131Zm5.882,5.59-.284,3.965h-4.2l-.286-3.965Zm-5.2,3.965h-4.189l-.854-3.965h4.758Zm-5.236-4.856-.837-3.885h5.445l.285,3.964h-4.875Zm17.965-8.663-.854,3.964h-5.562l.285-3.964Zm-2.912,13.519h-4.189l.285-3.965h4.758Z" transform="translate(8.156 11.202)" fill="#78c2ff"/>
      <rect id="Прямоугольник_1156" data-name="Прямоугольник 1156" width="92.919" height="3.678" transform="translate(216.966 236.665)" fill="#bfe2ff"/>
      <rect id="Прямоугольник_1157" data-name="Прямоугольник 1157" width="81.754" height="3.679" transform="translate(216.966 246.505)" fill="#bfe2ff"/>
      <path id="Контур_14073" data-name="Контур 14073" d="M238.951,287.535a4.875,4.875,0,1,1-4.875-4.877A4.874,4.874,0,0,1,238.951,287.535Z" transform="translate(9.579 11.125)" fill="#ff8080"/>
      <g id="Сгруппировать_3082" data-name="Сгруппировать 3082" transform="translate(215.014 129.991)">
        <path id="Контур_14074" data-name="Контур 14074" d="M239.644,166.3H212.273a5.54,5.54,0,0,1-5.533-5.533V133.4a5.539,5.539,0,0,1,5.533-5.533h27.372a5.538,5.538,0,0,1,5.533,5.533v27.372A5.539,5.539,0,0,1,239.644,166.3ZM212.273,129.44a3.96,3.96,0,0,0-3.956,3.956v27.372a3.96,3.96,0,0,0,3.956,3.956h27.372a3.961,3.961,0,0,0,3.957-3.956V133.4a3.961,3.961,0,0,0-3.957-3.956Z" transform="translate(-206.74 -127.863)" fill="#49aef0"/>
      </g>
      <path id="Прямоугольник_1158" data-name="Прямоугольник 1158" d="M0,0H36.861a0,0,0,0,1,0,0V5.664a4.779,4.779,0,0,1-4.779,4.779H4.779A4.779,4.779,0,0,1,0,5.664V0A0,0,0,0,1,0,0Z" transform="translate(215.802 157.196)" fill="#49aef0"/>
      <rect id="Прямоугольник_1159" data-name="Прямоугольник 1159" width="49.791" height="2.428" transform="translate(258.287 139.207)" fill="#bfe2ff"/>
      <rect id="Прямоугольник_1160" data-name="Прямоугольник 1160" width="64.62" height="2.429" transform="translate(258.287 150.159)" fill="#bfe2ff"/>
      <rect id="Прямоугольник_1161" data-name="Прямоугольник 1161" width="25.524" height="2.429" transform="translate(258.287 144.683)" fill="#bfe2ff"/>
      <g id="Сгруппировать_3083" data-name="Сгруппировать 3083" transform="translate(215.014 180.794)">
        <path id="Контур_14075" data-name="Контур 14075" d="M239.644,214.313H212.273a5.54,5.54,0,0,1-5.533-5.533V181.409a5.54,5.54,0,0,1,5.533-5.533h27.372a5.539,5.539,0,0,1,5.533,5.533v27.372A5.539,5.539,0,0,1,239.644,214.313Zm-27.372-36.861a3.96,3.96,0,0,0-3.956,3.956v27.372a3.961,3.961,0,0,0,3.956,3.957h27.372a3.962,3.962,0,0,0,3.957-3.957V181.409a3.961,3.961,0,0,0-3.957-3.956Z" transform="translate(-206.74 -175.876)" fill="#49aef0"/>
      </g>
      <rect id="Прямоугольник_1162" data-name="Прямоугольник 1162" width="60.067" height="2.428" transform="translate(258.287 190.011)" fill="#bfe2ff"/>
      <rect id="Прямоугольник_1163" data-name="Прямоугольник 1163" width="37.757" height="2.428" transform="translate(258.287 200.963)" fill="#bfe2ff"/>
      <rect id="Прямоугольник_1164" data-name="Прямоугольник 1164" width="23.066" height="2.428" transform="translate(258.287 195.487)" fill="#bfe2ff"/>
      <path id="Прямоугольник_1165" data-name="Прямоугольник 1165" d="M0,0H36.861a0,0,0,0,1,0,0V5.665a4.779,4.779,0,0,1-4.779,4.779H4.779A4.779,4.779,0,0,1,0,5.665V0A0,0,0,0,1,0,0Z" transform="translate(215.802 208)" fill="#49aef0"/>
      <g id="Сгруппировать_3085" data-name="Сгруппировать 3085" transform="translate(259.559 158.436)">
        <g id="Сгруппировать_3084" data-name="Сгруппировать 3084" transform="translate(0 0)">
          <path id="Контур_14076" data-name="Контур 14076" d="M257.624,154.949a3.268,3.268,0,0,0-3.513.884,3.267,3.267,0,0,0-3.513-.884c-2.112.767-1.733,2.38-1.733,2.38.163,3.227,5.246,6.621,5.246,6.621s4.945-3.406,5.246-6.621C259.357,157.329,259.736,155.716,257.624,154.949Z" transform="translate(-248.838 -154.745)" fill="#78c2ff"/>
        </g>
      </g>
      <g id="Сгруппировать_3087" data-name="Сгруппировать 3087" transform="translate(274.289 158.436)">
        <g id="Сгруппировать_3086" data-name="Сгруппировать 3086" transform="translate(0 0)">
          <path id="Контур_14077" data-name="Контур 14077" d="M271.544,154.949a3.266,3.266,0,0,0-3.512.884,3.267,3.267,0,0,0-3.513-.884c-2.112.767-1.733,2.38-1.733,2.38.163,3.227,5.246,6.621,5.246,6.621s4.945-3.406,5.246-6.621C273.278,157.329,273.657,155.716,271.544,154.949Z" transform="translate(-262.759 -154.745)" fill="#78c2ff"/>
        </g>
      </g>
      <g id="Сгруппировать_3089" data-name="Сгруппировать 3089" transform="translate(288.732 158.436)">
        <g id="Сгруппировать_3088" data-name="Сгруппировать 3088" transform="translate(0 0)">
          <path id="Контур_14078" data-name="Контур 14078" d="M285.194,154.949a3.267,3.267,0,0,0-3.513.884,3.267,3.267,0,0,0-3.513-.884c-2.111.767-1.733,2.38-1.733,2.38.164,3.227,5.246,6.621,5.246,6.621s4.945-3.406,5.247-6.621C286.928,157.329,287.306,155.716,285.194,154.949Z" transform="translate(-276.408 -154.745)" fill="#78c2ff"/>
        </g>
      </g>
      <g id="Сгруппировать_3091" data-name="Сгруппировать 3091" transform="translate(303.174 158.436)">
        <g id="Сгруппировать_3090" data-name="Сгруппировать 3090" transform="translate(0 0)">
          <path id="Контур_14079" data-name="Контур 14079" d="M298.843,154.949a3.266,3.266,0,0,0-3.512.884,3.268,3.268,0,0,0-3.513-.884c-2.112.767-1.734,2.38-1.734,2.38.164,3.227,5.247,6.621,5.247,6.621s4.945-3.406,5.246-6.621C300.577,157.329,300.955,155.716,298.843,154.949Z" transform="translate(-290.057 -154.745)" fill="#78c2ff"/>
        </g>
      </g>
      <g id="Сгруппировать_3093" data-name="Сгруппировать 3093" transform="translate(317.727 158.436)">
        <g id="Сгруппировать_3092" data-name="Сгруппировать 3092" transform="translate(0 0)">
          <path id="Контур_14080" data-name="Контур 14080" d="M312.6,154.949a3.268,3.268,0,0,0-3.513.884,3.266,3.266,0,0,0-3.512-.884c-2.112.767-1.734,2.38-1.734,2.38.164,3.227,5.246,6.621,5.246,6.621s4.946-3.406,5.247-6.621C314.331,157.329,314.709,155.716,312.6,154.949Z" transform="translate(-303.811 -154.745)" fill="#78c2ff"/>
        </g>
      </g>
      <g id="Сгруппировать_3095" data-name="Сгруппировать 3095" transform="translate(259.559 209.95)">
        <g id="Сгруппировать_3094" data-name="Сгруппировать 3094">
          <path id="Контур_14081" data-name="Контур 14081" d="M257.624,203.633a3.27,3.27,0,0,0-3.513.885,3.269,3.269,0,0,0-3.513-.885c-2.112.768-1.733,2.381-1.733,2.381.163,3.227,5.246,6.621,5.246,6.621s4.945-3.406,5.246-6.621C259.357,206.014,259.736,204.4,257.624,203.633Z" transform="translate(-248.838 -203.43)" fill="#78c2ff"/>
        </g>
      </g>
      <g id="Сгруппировать_3097" data-name="Сгруппировать 3097" transform="translate(274.289 209.95)">
        <g id="Сгруппировать_3096" data-name="Сгруппировать 3096">
          <path id="Контур_14082" data-name="Контур 14082" d="M271.544,203.633a3.268,3.268,0,0,0-3.512.885,3.269,3.269,0,0,0-3.513-.885c-2.112.768-1.733,2.381-1.733,2.381.163,3.227,5.246,6.621,5.246,6.621s4.945-3.406,5.246-6.621C273.278,206.014,273.657,204.4,271.544,203.633Z" transform="translate(-262.759 -203.43)" fill="#78c2ff"/>
        </g>
      </g>
      <g id="Сгруппировать_3099" data-name="Сгруппировать 3099" transform="translate(288.732 209.95)">
        <g id="Сгруппировать_3098" data-name="Сгруппировать 3098">
          <path id="Контур_14083" data-name="Контур 14083" d="M285.194,203.633a3.269,3.269,0,0,0-3.513.885,3.269,3.269,0,0,0-3.513-.885c-2.111.768-1.733,2.381-1.733,2.381.164,3.227,5.246,6.621,5.246,6.621s4.945-3.406,5.247-6.621C286.928,206.014,287.306,204.4,285.194,203.633Z" transform="translate(-276.408 -203.43)" fill="#78c2ff"/>
        </g>
      </g>
      <g id="Сгруппировать_3100" data-name="Сгруппировать 3100" transform="translate(336.831 146.586)">
        <path id="Контур_14084" data-name="Контур 14084" d="M335.57,197.5H321.865v-1.05h12.654V144.6H321.865v-1.051H335.57Z" transform="translate(-321.865 -143.547)" fill="#bfe2ff"/>
      </g>
      <g id="Сгруппировать_3165" data-name="Сгруппировать 3165" transform="translate(65.39 257.765)">
        <g id="Сгруппировать_3101" data-name="Сгруппировать 3101" transform="translate(6.934 2.701)">
          <path id="Контур_14085" data-name="Контур 14085" d="M78.863,214.444s-3.547-.935-5.28,2.2,5.142,12.906,2.252,16.89c-2.553,3.52-4.892,1.744-4.892,1.744s4.881,5.3,9.065-.95c2.511-3.752,1.425-7.839,1.3-11.22S78.863,214.444,78.863,214.444Z" transform="translate(-70.943 -214.314)" fill="#995d31"/>
        </g>
        <g id="Сгруппировать_3103" data-name="Сгруппировать 3103" transform="translate(36.772 156.525)">
          <g id="Сгруппировать_3102" data-name="Сгруппировать 3102">
            <path id="Контур_14086" data-name="Контур 14086" d="M104.725,362.194s.951,2.532,2.274,3.134,4.32,3.381,5.522,3.581,4.09.427,4.25,1.951-.151,2.906-5.964,2.1A42.836,42.836,0,0,1,99.5,369.477s-1.172-5.891.716-8.8S104.725,362.194,104.725,362.194Z" transform="translate(-99.142 -359.688)" fill="#2f4563"/>
          </g>
        </g>
        <g id="Сгруппировать_3104" data-name="Сгруппировать 3104" transform="translate(37.115 155.398)">
          <path id="Контур_14087" data-name="Контур 14087" d="M104.706,362.256l-1.087-3.633H99.466v3.872S105.749,364.855,104.706,362.256Z" transform="translate(-99.466 -358.623)" fill="#eea886"/>
        </g>
        <g id="Сгруппировать_3106" data-name="Сгруппировать 3106" transform="translate(0 150.125)">
          <g id="Сгруппировать_3105" data-name="Сгруппировать 3105">
            <path id="Контур_14088" data-name="Контур 14088" d="M70.3,355.7a10.824,10.824,0,0,0,1.054,3.42c.644.795,1.577,4.575,2.892,5.782s4.54,3.925,3.553,5.284-7.888-.387-10.355-4.589-3.309-4.679-3-5.821,2.654-5.532,2.6-6.065S70.3,355.7,70.3,355.7Z" transform="translate(-64.39 -353.639)" fill="#2f4563"/>
          </g>
        </g>
        <g id="Сгруппировать_3107" data-name="Сгруппировать 3107" transform="translate(2.655 147.165)">
          <path id="Контур_14089" data-name="Контур 14089" d="M71.165,353.977a6.879,6.879,0,0,0-1.007,1.888c-.176.7-1.7.971-2.926-.541a2.435,2.435,0,0,1-.328-1.449,13.147,13.147,0,0,1,1.085-3.034Z" transform="translate(-66.899 -350.842)" fill="#eea886"/>
        </g>
        <g id="Сгруппировать_3109" data-name="Сгруппировать 3109" transform="translate(34.348 42.735)">
          <g id="Сгруппировать_3108" data-name="Сгруппировать 3108">
            <path id="Контур_14090" data-name="Контур 14090" d="M97.412,268.919l.237.292h0c.262.32.668.812,1.181,1.423,2.959,3.536,9.462,11.079,11.938,12.44,1.754.964,2.023-2.066.278-3.931-1.592-1.7-7.737-12.663-10.117-15.021-1.155-1.146-2.709-11.976-2.709-11.976s-1.438,9.031-1.278,10.069S96.4,267.657,97.412,268.919Z" transform="translate(-96.851 -252.148)" fill="url(#linear-gradient-4)"/>
          </g>
        </g>
        <g id="Сгруппировать_3112" data-name="Сгруппировать 3112" transform="translate(45.458 69.732)">
          <g id="Сгруппировать_3111" data-name="Сгруппировать 3111">
            <g id="Сгруппировать_3110" data-name="Сгруппировать 3110">
              <path id="Контур_14091" data-name="Контур 14091" d="M110.435,277.662s1.021,1.346,1.551,1.514,1.142,1.1,1.585,1.341,1.9.473,2.25.879a13.925,13.925,0,0,0,.941,1.84c.33.307,1.076.845.795,1.122s-1.088-.026-1.088-.026a.563.563,0,0,1,.111.614c-.335.616-.777.607-.777.607s.085.49-.12.712a1.227,1.227,0,0,1-.877.47,1.137,1.137,0,0,1-.454.627,1.031,1.031,0,0,1-.993.077s-.5.551-.893.4a3.468,3.468,0,0,1-.858-.656,12.894,12.894,0,0,1-2.517-4.784,9.515,9.515,0,0,0-1.741-3.643Z" transform="translate(-107.351 -277.662)" fill="#eea886"/>
            </g>
          </g>
        </g>
        <g id="Сгруппировать_3119" data-name="Сгруппировать 3119" transform="translate(34.319 75.761)">
          <g id="Сгруппировать_3114" data-name="Сгруппировать 3114" transform="translate(12.605)">
            <g id="Сгруппировать_3113" data-name="Сгруппировать 3113">
              <path id="Контур_14092" data-name="Контур 14092" d="M109.679,292.962c-.07-.152-1.7-3.742-.5-6.527a4.754,4.754,0,0,1,3.032-2.627,6.48,6.48,0,0,1,5.5.332,8.957,8.957,0,0,1,3.394,4.082,13.514,13.514,0,0,1,.893,2.627l.061.307-12.281,2.014Zm7.725-8.3a5.906,5.906,0,0,0-5-.284,4.174,4.174,0,0,0-2.668,2.291c-.937,2.176.087,5.035.407,5.825l11.189-1.834C121.056,289.616,119.986,286.155,117.4,284.666Z" transform="translate(-108.737 -283.36)" fill="#23344a"/>
            </g>
          </g>
          <g id="Сгруппировать_3116" data-name="Сгруппировать 3116" transform="translate(0 4.159)">
            <g id="Сгруппировать_3115" data-name="Сгруппировать 3115">
              <path id="Контур_14093" data-name="Контур 14093" d="M142.819,325.222l-39.327,5.117-6.668-36.016,41.116-7.034Z" transform="translate(-96.824 -287.29)" fill="#eb4747"/>
            </g>
          </g>
          <g id="Сгруппировать_3118" data-name="Сгруппировать 3118" transform="translate(41.116 4.159)">
            <g id="Сгруппировать_3117" data-name="Сгруппировать 3117">
              <path id="Контур_14094" data-name="Контур 14094" d="M149.818,322.586l-14.136-35.3,4.878,37.932,4.118-2.412Z" transform="translate(-135.682 -287.29)" fill="#ad3434"/>
            </g>
          </g>
        </g>
        <g id="Сгруппировать_3126" data-name="Сгруппировать 3126" transform="translate(31.665 75.759)">
          <g id="Сгруппировать_3121" data-name="Сгруппировать 3121" transform="translate(14.02)">
            <g id="Сгруппировать_3120" data-name="Сгруппировать 3120">
              <path id="Контур_14095" data-name="Контур 14095" d="M107.942,292.587c-.047-.169-1.128-4.192.6-6.889a5.02,5.02,0,0,1,3.613-2.214,6.846,6.846,0,0,1,5.677,1.3,9.467,9.467,0,0,1,2.833,4.842,14.077,14.077,0,0,1,.475,2.893l.013.331-13.149-.025Zm9.487-7.312a6.236,6.236,0,0,0-5.169-1.161,4.405,4.405,0,0,0-3.175,1.928c-1.353,2.1-.78,5.262-.583,6.14l11.98.024C120.379,291.068,119.861,287.275,117.429,285.275Z" transform="translate(-107.566 -283.358)" fill="#23344a"/>
            </g>
          </g>
          <g id="Сгруппировать_3123" data-name="Сгруппировать 3123" transform="translate(0 8.323)">
            <g id="Сгруппировать_3122" data-name="Сгруппировать 3122">
              <path id="Контур_14096" data-name="Контур 14096" d="M136.916,331.607,95.039,330.14l-.723-38.694,44.075-.222Z" transform="translate(-94.316 -291.224)" fill="#faa146"/>
            </g>
          </g>
          <g id="Сгруппировать_3125" data-name="Сгруппировать 3125" transform="translate(42.6 8.323)">
            <g id="Сгруппировать_3124" data-name="Сгруппировать 3124">
              <path id="Контур_14097" data-name="Контур 14097" d="M144.682,330.459l-8.631-39.235-1.475,40.383,4.709-1.8Z" transform="translate(-134.576 -291.224)" fill="#b06e2a"/>
            </g>
          </g>
        </g>
        <g id="Сгруппировать_3128" data-name="Сгруппировать 3128" transform="translate(48.653 74.05)">
          <g id="Сгруппировать_3127" data-name="Сгруппировать 3127">
            <path id="Контур_14098" data-name="Контур 14098" d="M116.212,283.824s-1.534-2.043-2.41-2.08-.364.732-.364.732-.494-.768-1.159-.439-.017,1.2-.017,1.2a.738.738,0,0,0-1.061.08c-.528.561.176,1.157.176,1.157s-1.136-.262-.994.678a3.826,3.826,0,0,0,1.909,2.457s.422.17.893-.4a1.024,1.024,0,0,0,1.446-.7s1.285-.166,1-1.182A.89.89,0,0,0,116.212,283.824Z" transform="translate(-110.37 -281.743)" fill="#db9c7c"/>
          </g>
        </g>
        <g id="Сгруппировать_3130" data-name="Сгруппировать 3130" transform="translate(22.405 71.197)">
          <g id="Сгруппировать_3129" data-name="Сгруппировать 3129">
            <path id="Контур_14099" data-name="Контур 14099" d="M87.266,298.447c.217,1.048,1.605,5.43,3.159,10.3h0c1.418,4.441,2.972,9.285,3.906,12.377.348,1.152.609,2.062.745,2.615.894,3.66-.112,9.4-.437,14.2s4.848,28.407,4.848,28.407c1.219.569,6.632-.937,6.632-.937-.9-1.708-2.1-31.1-1.609-32.967a28.419,28.419,0,0,0,.325-9.109,7.912,7.912,0,0,1-.16-1.633c-.041-2.565.487-6.808.811-11.462.406-5.857-1.871-20.414-2.2-21.716-.03-.12-.077-.288-.138-.5-.6-2.041-2.529-7.838-2.529-7.838-3.912-1.164-6.859-1.374-9.058-.926a6.731,6.731,0,0,0-5.312,4.558C84.341,289.116,86.986,297.088,87.266,298.447Z" transform="translate(-85.564 -279.046)" fill="url(#linear-gradient)"/>
          </g>
        </g>
        <g id="Сгруппировать_3132" data-name="Сгруппировать 3132" transform="translate(1.875 67.15)">
          <g id="Сгруппировать_3131" data-name="Сгруппировать 3131">
            <path id="Контур_14100" data-name="Контур 14100" d="M66.162,357.63,71.5,359.9c.672-3.253,15.589-25.851,16.571-28.372a36.851,36.851,0,0,0,2.028-9.191c0-.32.022-.857.068-1.558.174-2.712.67-7.827,1.382-11.809.133-.743.273-1.445.42-2.086.788-3.435.925-15.164.934-22.064,0-3.07-.017-5.183-.017-5.183s-.069-.054-.2-.15c-1.482-1.123-11-7.964-14.313-1.568a19.18,19.18,0,0,0-1.795,5.394,62.158,62.158,0,0,0-.18,18.891c.734,5.089,3.16,11.665,3.564,17,.223,2.936.143,5.312-.521,6.465-1.872,3.255-3.7,6.008-7.483,17.488C70.735,346.891,66.162,357.63,66.162,357.63Z" transform="translate(-66.162 -275.222)" fill="url(#linear-gradient)"/>
          </g>
        </g>
        <g id="Сгруппировать_3134" data-name="Сгруппировать 3134" transform="translate(13.516 1.252)">
          <g id="Сгруппировать_3133" data-name="Сгруппировать 3133">
            <path id="Контур_14101" data-name="Контур 14101" d="M86.926,213.121s7.366.253,7.662,10.921S92.563,236.981,86,234.759s-8.643-13.385-8.791-15.113S76.8,211.837,86.926,213.121Z" transform="translate(-77.164 -212.944)" fill="#eea886"/>
          </g>
        </g>
        <g id="Сгруппировать_3136" data-name="Сгруппировать 3136" transform="translate(9.955 26.413)">
          <g id="Сгруппировать_3135" data-name="Сгруппировать 3135">
            <path id="Контур_14102" data-name="Контур 14102" d="M73.8,247.912c-.029,3.673,4.193,12.452,4.844,15.164s1.68,3.58.814,7.049-3.557,15.209-3.449,16.24,24.2,4.828,27.83,4.124c0,0-4.441-16.571-4.766-18.469s.395-9.012.558-11.019,2.193-6.324,2.125-8.335c-.07-2.05-1.076-3.818-2.483-6.006-.436-.678-.894-1.369-1.352-2.04a38.572,38.572,0,0,0-3.713-4.86,11.759,11.759,0,0,0-1.494-1.194l0,0a6.963,6.963,0,0,0-1.539-.812l-6.452-1.03s-4.022,1.455-6.335,2C78.38,238.719,73.865,239.377,73.8,247.912Z" transform="translate(-73.798 -236.723)" fill="url(#linear-gradient-4)"/>
          </g>
        </g>
        <g id="Сгруппировать_3138" data-name="Сгруппировать 3138" transform="translate(28.863 28.254)">
          <g id="Сгруппировать_3137" data-name="Сгруппировать 3137">
            <path id="Контур_14103" data-name="Контур 14103" d="M91.667,238.463l3.739,5.894,3.452,5.441c-.007-.031-.238-.854-.627-3.239q-.111-.678-.239-1.532a4.154,4.154,0,0,0-.108-.5h0c-1.477-3.405-6.045-5.973-6.212-6.059Z" transform="translate(-91.667 -238.463)" fill="url(#linear-gradient-4)"/>
          </g>
        </g>
        <g id="Сгруппировать_3140" data-name="Сгруппировать 3140" transform="translate(18.094 18.105)">
          <g id="Сгруппировать_3139" data-name="Сгруппировать 3139">
            <path id="Контур_14104" data-name="Контур 14104" d="M81.521,229.029c.651,1.228,1.337,8.855,1.337,8.855s9.181,3.471,8.242,1.508a7.5,7.5,0,0,1-.56-3.043,14.694,14.694,0,0,1,.1-1.853c.024-.2.042-.316.042-.316S80.87,227.8,81.521,229.029Z" transform="translate(-81.49 -228.871)" fill="#eea886"/>
          </g>
        </g>
        <g id="Сгруппировать_3142" data-name="Сгруппировать 3142" transform="translate(22.01 22.942)">
          <g id="Сгруппировать_3141" data-name="Сгруппировать 3141">
            <path id="Контур_14105" data-name="Контур 14105" d="M85.191,233.443c1.409,2.079,5.133,2.64,5.133,2.64h0a14.7,14.7,0,0,1,.1-1.853A10.49,10.49,0,0,1,85.191,233.443Z" transform="translate(-85.191 -233.443)" fill="#a77860"/>
          </g>
        </g>
        <g id="Сгруппировать_3143" data-name="Сгруппировать 3143" transform="translate(28.867 28.256)">
          <path id="Контур_14106" data-name="Контур 14106" d="M97.866,244.484h0a7.745,7.745,0,0,1,.363,2.075l-1.352-2.04s-2.415-3.464-3.243-4.364a13.76,13.76,0,0,0-1.964-1.69S96.423,240.748,97.866,244.484Z" transform="translate(-91.671 -238.465)" fill="#e6d3cc"/>
        </g>
        <g id="Сгруппировать_3144" data-name="Сгруппировать 3144" transform="translate(17.423 26.391)">
          <path id="Контур_14107" data-name="Контур 14107" d="M90.757,237.754s4.327,6.652,2.862,7.234-9.392-.776-12.763-7.095C80.856,237.893,85.9,235.309,90.757,237.754Z" transform="translate(-80.856 -236.702)" fill="#eea886"/>
        </g>
        <g id="Сгруппировать_3145" data-name="Сгруппировать 3145" transform="translate(44.792 69.234)">
          <path id="Контур_14108" data-name="Контур 14108" d="M111.476,278.823s-2.21.731-2.889,1.989a20.661,20.661,0,0,0-1.867-2.17l3.345-1.45Z" transform="translate(-106.721 -277.192)" fill="#e6d3cc"/>
        </g>
        <g id="Сгруппировать_3146" data-name="Сгруппировать 3146" transform="translate(35.776 50.649)">
          <path id="Контур_14109" data-name="Контур 14109" d="M98.2,259.779c.01-.09.015-.143.015-.151a.277.277,0,0,0-.006.041A.789.789,0,0,0,98.2,259.779Z" transform="translate(-98.201 -259.628)" fill="#2f4563"/>
        </g>
        <g id="Сгруппировать_3147" data-name="Сгруппировать 3147" transform="translate(35.117 50.801)">
          <path id="Контур_14110" data-name="Контур 14110" d="M97.607,268.768h0c.262.32,1.239,1.5,1.751,2.112,0,0-1.169-9.835-1.121-11.11A72.14,72.14,0,0,0,97.607,268.768Z" transform="translate(-97.578 -259.771)" fill="#bdaea8"/>
        </g>
        <g id="Сгруппировать_3149" data-name="Сгруппировать 3149" transform="translate(0.817 40.415)">
          <g id="Сгруппировать_3148" data-name="Сгруппировать 3148">
            <path id="Контур_14111" data-name="Контур 14111" d="M91.538,282.641l-26.376-7.966L71.2,249.956l28.056,7.26Z" transform="translate(-65.162 -249.956)" fill="#e6e6e6"/>
          </g>
        </g>
        <g id="Сгруппировать_3151" data-name="Сгруппировать 3151" transform="translate(27.193 47.675)">
          <g id="Сгруппировать_3150" data-name="Сгруппировать 3150">
            <path id="Контур_14112" data-name="Контур 14112" d="M96.706,283.21l1.1-26.392-7.719,25.425,3.3-.355Z" transform="translate(-90.089 -256.817)" fill="#c5c2c2"/>
          </g>
        </g>
        <g id="Сгруппировать_3153" data-name="Сгруппировать 3153" transform="translate(5.898 28.348)">
          <g id="Сгруппировать_3152" data-name="Сгруппировать 3152">
            <path id="Контур_14113" data-name="Контур 14113" d="M74.647,244.42s1.019-6.875,6.056-5.742c4.841,1.089.3,10.1-.051,11.17s-3.94,9.783-4.252,10.926c-.983,3.611-.061,3.7,1.418,4.549,4.366,2.514,13.137,2.956,14.171,3.647s1.18,2.234-.56,2.309c-2.263.1-15.194-1.119-17-1.3-1.749-.171-5.231-.319-4.318-6.535C70.73,259.26,74.647,244.42,74.647,244.42Z" transform="translate(-69.964 -238.552)" fill="url(#linear-gradient-4)"/>
          </g>
        </g>
        <g id="Сгруппировать_3154" data-name="Сгруппировать 3154" transform="translate(20.105 54.688)">
          <path id="Контур_14114" data-name="Контур 14114" d="M83.474,265.955s2.7.452,2.947.411,1.317-1.785,2.552-2.1a25.629,25.629,0,0,0,3.157-.791c.381-.238.485.973-.7,1.468s-1.483,1.157.738,1.6c1.228.247,5.82-.266,5.439.509-.224.456-4.649.782-4.649.782s4.774-.022,4.937.267c.32.569-4.47.769-4.668.751,0,0,4.1.235,4.139.6.044.458-4.113.263-4.074.338,0,0,3.261.225,3.228.5-.042.365-2.913.409-3.469.343s-6.182-.7-7.123-.893-2.536-.3-2.536-.3Z" transform="translate(-83.391 -263.445)" fill="#eea886"/>
        </g>
        <g id="Сгруппировать_3155" data-name="Сгруппировать 3155" transform="translate(13.581 55.767)">
          <path id="Контур_14115" data-name="Контур 14115" d="M78.716,264.464a50.587,50.587,0,0,0,5.116,1.432c2.478.526-.083,3.495-.083,3.495s-4.293-.408-6.358-.6C76.633,268.723,78.716,264.464,78.716,264.464Z" transform="translate(-77.225 -264.464)" fill="#eea886"/>
        </g>
        <g id="Сгруппировать_3156" data-name="Сгруппировать 3156" transform="translate(9.862 28.277)">
          <path id="Контур_14116" data-name="Контур 14116" d="M80.938,249.28s-5.514-1.961-7.228-2.093c0,0,.885-9.617,6.576-8.631S80.938,249.28,80.938,249.28Z" transform="translate(-73.71 -238.485)" fill="url(#linear-gradient-4)"/>
        </g>
        <g id="Сгруппировать_3158" data-name="Сгруппировать 3158" transform="translate(15.811 42.996)">
          <g id="Сгруппировать_3157" data-name="Сгруппировать 3157">
            <path id="Контур_14117" data-name="Контур 14117" d="M80.347,252.395l8.357,2.163-.055.19a9.268,9.268,0,0,1-.768,1.768,6.219,6.219,0,0,1-2.585,2.632,4.5,4.5,0,0,1-3.827-.085,3.3,3.3,0,0,1-1.948-1.992c-.671-2,.666-4.389.723-4.491Zm7.83,2.444-7.642-1.911a5.875,5.875,0,0,0-.616,4.01,2.9,2.9,0,0,0,1.715,1.739,4.1,4.1,0,0,0,3.482.091C86.99,257.885,87.928,255.549,88.177,254.839Z" transform="translate(-79.332 -252.395)" fill="#23344a"/>
          </g>
        </g>
        <g id="Сгруппировать_3159" data-name="Сгруппировать 3159" transform="translate(15.615 25.204)">
          <path id="Контур_14118" data-name="Контур 14118" d="M90.712,236.789s-.742.99-7.908-1.209l-.124,1.727a19,19,0,0,0-3.533,1.2s12.922,12.177,14.874,7.207-3.011-7.835-3.011-7.835Z" transform="translate(-79.147 -235.58)" fill="url(#linear-gradient-4)"/>
        </g>
        <g id="Сгруппировать_3160" data-name="Сгруппировать 3160" transform="translate(13.117 0.796)">
          <path id="Контур_14119" data-name="Контур 14119" d="M88.933,219.883s-1.418,5.231-9.867,6.8c0,0-6.619-11.333,2.7-13.7s12.308,4.8,12.586,8.327A10.219,10.219,0,0,0,88.933,219.883Z" transform="translate(-76.786 -212.513)" fill="#995d31"/>
        </g>
        <g id="Сгруппировать_3161" data-name="Сгруппировать 3161" transform="translate(12.718)">
          <path id="Контур_14120" data-name="Контур 14120" d="M94.037,219.972s-3.721-13.423-15.2-5.945c0,0-5.764,3.824.469,13.224C79.306,227.252,87.992,224.973,94.037,219.972Z" transform="translate(-76.409 -211.761)" fill="#995d31"/>
        </g>
        <g id="Сгруппировать_3162" data-name="Сгруппировать 3162" transform="translate(20.655 57.36)">
          <path id="Контур_14121" data-name="Контур 14121" d="M84.524,265.984a4.308,4.308,0,0,0-.513,3.373s.206.285.948.1c0,0-.038-2.419.689-3.308A1.749,1.749,0,0,0,84.524,265.984Z" transform="translate(-83.91 -265.97)" fill="#23344a"/>
        </g>
        <g id="Сгруппировать_3163" data-name="Сгруппировать 3163" transform="translate(17.897 12.333)">
          <path id="Контур_14122" data-name="Контур 14122" d="M84.415,225c-.5-1.1-1.313-2.06-2.524-1.318s-.412,3.41,1.128,3.822S84.855,225.963,84.415,225Z" transform="translate(-81.304 -223.416)" fill="#eea886"/>
        </g>
        <g id="Сгруппировать_3164" data-name="Сгруппировать 3164" transform="translate(15.265 14.289)">
          <path id="Контур_14123" data-name="Контур 14123" d="M81.6,225.706a5.356,5.356,0,0,0-1.008,3.586s-1.909-1.991-1.769-3.355S81.6,225.706,81.6,225.706Z" transform="translate(-78.816 -225.265)" fill="#995d31"/>
        </g>
      </g>
      <g id="Сгруппировать_3166" data-name="Сгруппировать 3166" transform="translate(395.394 295.038)">
        <rect id="Прямоугольник_1166" data-name="Прямоугольник 1166" width="63.215" height="7.674" transform="translate(0 61.828)" fill="url(#linear-gradient-12)"/>
        <rect id="Прямоугольник_1167" data-name="Прямоугольник 1167" width="63.216" height="7.675" transform="translate(2.304 54.153)" fill="url(#linear-gradient-13)"/>
        <rect id="Прямоугольник_1168" data-name="Прямоугольник 1168" width="63.215" height="7.674" transform="translate(1.017 46.479)" fill="url(#linear-gradient-12)"/>
        <rect id="Прямоугольник_1169" data-name="Прямоугольник 1169" width="63.216" height="7.674" transform="translate(2.304 38.805)" fill="url(#linear-gradient-13)"/>
        <rect id="Прямоугольник_1170" data-name="Прямоугольник 1170" width="63.216" height="7.676" transform="translate(3.385 31.129)" fill="url(#linear-gradient-12)"/>
        <rect id="Прямоугольник_1171" data-name="Прямоугольник 1171" width="63.215" height="7.675" transform="translate(1.405 23.454)" fill="url(#linear-gradient-13)"/>
        <rect id="Прямоугольник_1172" data-name="Прямоугольник 1172" width="63.215" height="7.674" transform="translate(0 15.78)" fill="url(#linear-gradient-12)"/>
        <rect id="Прямоугольник_1173" data-name="Прямоугольник 1173" width="63.216" height="7.674" transform="translate(2.58 8.105)" fill="url(#linear-gradient-13)"/>
        <rect id="Прямоугольник_1174" data-name="Прямоугольник 1174" width="63.216" height="7.676" transform="translate(5.005 69.184)" fill="url(#linear-gradient-13)"/>
        <rect id="Прямоугольник_1175" data-name="Прямоугольник 1175" width="63.216" height="7.675" transform="translate(8.467) rotate(1.37)" fill="url(#linear-gradient-21)"/>
      </g>
      <g id="Сгруппировать_3188" data-name="Сгруппировать 3188" transform="translate(431.561 228.821)">
        <g id="Сгруппировать_3169" data-name="Сгруппировать 3169" transform="translate(29.685 56.59)">
          <g id="Сгруппировать_3168" data-name="Сгруппировать 3168">
            <g id="Сгруппировать_3167" data-name="Сгруппировать 3167">
              <path id="Контур_14124" data-name="Контур 14124" d="M433.135,245.673s-1.438-1.738-.883-2.859A5.585,5.585,0,0,0,432.4,240c-.03-.649.7-2.145-.112-2.113s-1.316,2.756-1.537,3.422-1.87-2-2.555-2.255-4.95,2.728-3.608,4.428,3.619,2.73,3.8,3.076.9,1.357.9,1.357Z" transform="translate(-424.325 -237.889)" fill="#eea987"/>
            </g>
          </g>
        </g>
        <path id="Контур_14125" data-name="Контур 14125" d="M428.147,362.983s-3.554,3.569-6.61,3.954-6.6,1.532-7.017,3.836,9.052,4.75,12.783,2.949c5.565-2.689,7.181-1.62,8.029-3.269s.69-7.338.82-7.883C436.312,361.9,428.147,362.983,428.147,362.983Z" transform="translate(-395.21 -174.064)" fill="#202338"/>
        <path id="Контур_14126" data-name="Контур 14126" d="M487.125,353.565s-1.03,4.883-3.294,6.756-4.532,4.656-3.682,6.86,8.923,1.945,11.814-3.886c1.824-3.684,3.945-4.322,3.781-6.178s-2.986-5.827-3.162-6.366C492.365,350.085,487.125,353.565,487.125,353.565Z" transform="translate(-391.406 -174.743)" fill="#202338"/>
        <path id="Контур_14127" data-name="Контур 14127" d="M451.543,287.631S439.3,313,436.53,319.432c-2.563,5.96-5.2,16.667-5.551,20.855-.443,5.265-5.485,26.682-5.8,28.221s10.676.615,10.676.615,9.571-36.485,12.106-41.659c1.691-3.453,14.4-26.435,15.527-25.01s7.955,18.6,8.787,22.717,16.484,34.751,16.484,34.751,7.307-.534,8.745-3.318c0,0-11.674-31.043-12.972-36.694-.66-2.875-3.078-20.989-6.127-34.876C476.842,277.892,451.543,287.631,451.543,287.631Z" transform="translate(-394.59 -178.71)" fill="#1c222b"/>
        <g id="Сгруппировать_3171" data-name="Сгруппировать 3171" transform="translate(0 0)">
          <path id="Контур_14128" data-name="Контур 14128" d="M396.764,222.494a32.471,32.471,0,1,1,37.6,26.372A32.472,32.472,0,0,1,396.764,222.494Z" transform="translate(-396.27 -184.407)" fill="#f8bb66"/>
          <path id="Контур_14129" data-name="Контур 14129" d="M434.675,248.474l-11.2-63.851a32.471,32.471,0,0,1,11.2,63.851Z" transform="translate(-394.689 -184.407)" fill="#f8bb66"/>
          <path id="Контур_14130" data-name="Контур 14130" d="M396.765,222.339A32.482,32.482,0,0,1,415.5,187.074l10.887,62.047A32.484,32.484,0,0,1,396.765,222.339Z" transform="translate(-396.27 -184.252)" fill="#f8bb66"/>
          <path id="Контур_14131" data-name="Контур 14131" d="M403.647,215.812a24.68,24.68,0,1,1,24.028,25.314A24.678,24.678,0,0,1,403.647,215.812Z" transform="translate(-395.842 -183.979)" fill="#f89829"/>
          <g id="Сгруппировать_3170" data-name="Сгруппировать 3170" transform="translate(20.529 17.581)">
            <path id="Контур_14132" data-name="Контур 14132" d="M436.748,212.674a5.007,5.007,0,0,0-.693-1.017,10.7,10.7,0,0,0-1.168-1.18,12.043,12.043,0,0,0-1.557-1.146,10.458,10.458,0,0,0-1.852-.914l-2.149,7.144.614.335a31.843,31.843,0,0,1,3.064,2.014,9.988,9.988,0,0,1,2.132,2.11,5.734,5.734,0,0,1,1.019,2.432,6.631,6.631,0,0,1-.276,2.986,7.171,7.171,0,0,1-1.6,2.926,6.376,6.376,0,0,1-2.461,1.613,8.536,8.536,0,0,1-3.082.485,13.76,13.76,0,0,1-3.437-.526l-1.09,3.623-1.795-.539,1.111-3.695a18.118,18.118,0,0,1-4.434-2.405,15.5,15.5,0,0,1-3.427-3.5l2.756-2.783a6.444,6.444,0,0,0,.835,1.23,13.322,13.322,0,0,0,1.412,1.44,16.216,16.216,0,0,0,1.883,1.432,14.024,14.024,0,0,0,2.254,1.205l2.15-7.144q-.186-.13-.4-.251a4.654,4.654,0,0,1-.395-.25,30.45,30.45,0,0,1-2.887-1.98,8.329,8.329,0,0,1-1.872-1.974,5.316,5.316,0,0,1-.83-2.187,6.208,6.208,0,0,1,.277-2.608,7.605,7.605,0,0,1,1.49-2.826,6.893,6.893,0,0,1,2.337-1.763,8.25,8.25,0,0,1,2.949-.731,12.151,12.151,0,0,1,3.361.277l1.049-3.487,1.8.54-1.049,3.487a13.884,13.884,0,0,1,3.872,2.144,15.64,15.64,0,0,1,2.8,2.837Zm-11.662-2.529a2.606,2.606,0,0,0,.364,2.48,10.281,10.281,0,0,0,2.706,2.207l2.045-6.8a5.216,5.216,0,0,0-3.4.049A3.128,3.128,0,0,0,425.086,210.145Zm6.528,14.461a2.671,2.671,0,0,0-.516-2.66,13.54,13.54,0,0,0-2.963-2.415l-2.055,6.834a6.576,6.576,0,0,0,3.648.194A2.717,2.717,0,0,0,431.614,224.607Z" transform="translate(-415.672 -201.022)" fill="#f8c681"/>
          </g>
          <path id="Контур_14133" data-name="Контур 14133" d="M439.47,246.816a32.48,32.48,0,0,0-10.944-62.371Z" transform="translate(-394.396 -184.405)" fill="#f8f8f8" style="mix-blend-mode: soft-light;isolation: isolate"/>
          <path id="Контур_14134" data-name="Контур 14134" d="M425.33,249.265l-10.887-62.047a32.522,32.522,0,0,1,7.637-2.328q.962-.168,1.916-.278l11.2,63.851q-.938.224-1.9.392A32.552,32.552,0,0,1,425.33,249.265Z" transform="translate(-395.214 -184.395)" fill="#f8f8f8" style="mix-blend-mode: soft-light;isolation: isolate"/>
        </g>
        <path id="Контур_14135" data-name="Контур 14135" d="M479.666,250.833s-4.211,12.672-4.117,15.688S473.213,251.775,479.666,250.833Z" transform="translate(-391.684 -180.546)" fill="url(#linear-gradient)"/>
        <g id="Сгруппировать_3175" data-name="Сгруппировать 3175" transform="translate(32.87 63.667)">
          <g id="Сгруппировать_3174" data-name="Сгруппировать 3174">
            <g id="Сгруппировать_3173" data-name="Сгруппировать 3173">
              <g id="Сгруппировать_3172" data-name="Сгруппировать 3172">
                <path id="Контур_14136" data-name="Контур 14136" d="M452.544,255.88a30.669,30.669,0,0,1-1.513,3.856h0a24.975,24.975,0,0,1-1.271,2.381c-.085.14-.171.279-.259.417a16.188,16.188,0,0,1-1.113,1.536,6.785,6.785,0,0,1-4.525,2.811c-3.6.265-16.528-19.5-16.528-19.5l6.176-2.805s8.182,11.812,9.452,11.163,2.587-5.446,2.587-5.446c1.5-.83,3.8,1.467,5.345,3.362.1.123.2.245.291.365C452,255.05,452.544,255.88,452.544,255.88Z" transform="translate(-427.335 -244.577)" fill="url(#linear-gradient)"/>
              </g>
            </g>
          </g>
        </g>
        <g id="Сгруппировать_3179" data-name="Сгруппировать 3179" transform="translate(50.448 55.582)">
          <g id="Сгруппировать_3178" data-name="Сгруппировать 3178">
            <g id="Сгруппировать_3177" data-name="Сгруппировать 3177">
              <g id="Сгруппировать_3176" data-name="Сгруппировать 3176">
                <path id="Контур_14137" data-name="Контур 14137" d="M478.069,289.708c-7,6.266-29.362,4.191-29.362,4.191.324-.773,2.588-24.088,1.8-29.358s-.345-9.742-1.047-9.945-5.511-1.882-5.511-1.882,2.559-8.131,3.629-9.893,8.73-4.34,8.73-4.34a30.387,30.387,0,0,1,12.257-1.386c10.539,1.246,11.8,4.348,11.8,4.348-2.908,18.6-2.4,14.585-2.542,18.265-.178,5.031-.554,15.808-.606,18.375A109.728,109.728,0,0,0,478.069,289.708Z" transform="translate(-443.947 -236.935)" fill="url(#linear-gradient)"/>
              </g>
            </g>
          </g>
        </g>
        <g id="Сгруппировать_3183" data-name="Сгруппировать 3183" transform="translate(63.432 47.78)">
          <g id="Сгруппировать_3182" data-name="Сгруппировать 3182">
            <g id="Сгруппировать_3181" data-name="Сгруппировать 3181">
              <g id="Сгруппировать_3180" data-name="Сгруппировать 3180">
                <path id="Контур_14138" data-name="Контур 14138" d="M469.588,237.806a15.662,15.662,0,0,1-1.358,2.09c-3.291,4.242-7.107,4.091-7.107,4.091a5.05,5.05,0,0,1-4.225-3.072,7.718,7.718,0,0,1-.68-2.233l1.388-.5a6.123,6.123,0,0,0,.2-1.408c.02-.3.026-.614.031-.935,0-.279,0-.56-.011-.836l-.01-.328c-.044-1.181-.135-2.163-.135-2.163s9.986-5.4,9.171-1.589a9.213,9.213,0,0,0-.065,4.112,3.143,3.143,0,0,0,1.292,2.1C469.032,237.588,469.588,237.806,469.588,237.806Z" transform="translate(-456.218 -229.562)" fill="#eea987"/>
              </g>
            </g>
          </g>
        </g>
        <path id="Контур_14139" data-name="Контур 14139" d="M442.12,244.87a1.99,1.99,0,0,1-.612-1.08c-.11-1.017.908-2.326-.259-3.251s-5.354,1.9-5.782,2.77.718,2.582,3.412,4.216S442.12,244.87,442.12,244.87Z" transform="translate(-393.997 -181.155)" fill="#eea886"/>
        <path id="Контур_14140" data-name="Контур 14140" d="M441.766,241.284a40.579,40.579,0,0,0-2.338-4c-1.2-1.794-2.884-3.695-3.372-3.368-.666.448.853,1.788,1.914,3.645.977,1.712.478,1.541.478,1.541s.145.041-1.306-1.614c-1.56-1.779-3.469-3.665-3.909-3.271-.275.248-.333.252.12.989-.358-.368-.516-.323-.7-.188-.927.691.926,3.661,1.664,4.84-.572-.9-1.1-1.5-1.389-.732-.334.88,2.49,4.958,3.35,6.518C437.222,247.342,441.766,241.284,441.766,241.284Z" transform="translate(-394.17 -181.532)" fill="#eea886"/>
        <g id="Сгруппировать_3184" data-name="Сгруппировать 3184" transform="translate(42.702 59.193)">
          <path id="Контур_14141" data-name="Контур 14141" d="M481.671,253.271c4.525-5.509-1.23-12.494-1.23-12.494-3.311-2.821-10.4,9.176-11.31,10.334s-7.842,7.35-9.776,9.44c-.986,1.068-5.134-3.483-7.035-5.295-1.142-1.09-10.047-11.536-10.047-11.536s-6.131,4.429-5.615,4.055,18.151,22.719,21.423,22.894C458.08,270.667,470.747,266.571,481.671,253.271Z" transform="translate(-436.627 -240.348)" fill="url(#linear-gradient)"/>
        </g>
        <path id="Контур_14142" data-name="Контур 14142" d="M448.829,261.508c-.085.14-.171.279-.259.417a16.188,16.188,0,0,1-1.113,1.536c-.85-1.016-4.066-8.279-4.116-8.394Z" transform="translate(-393.534 -180.3)" fill="url(#linear-gradient)"/>
        <path id="Контур_14143" data-name="Контур 14143" d="M475.465,257.633a87.839,87.839,0,0,1-8.751,6.965c-3.079,1.88-8.216,4.442-8.79,4.663C457.924,269.261,471.531,266.606,475.465,257.633Z" transform="translate(-392.687 -180.151)" fill="url(#linear-gradient)"/>
        <g id="Сгруппировать_3185" data-name="Сгруппировать 3185" transform="translate(57.197 31.882)">
          <path id="Контур_14144" data-name="Контур 14144" d="M452.734,219.448s-2.168,4.019-1.094,4.643c.889.517-1.039,4.461-1.291,5.105s1.607,1.112,2,1.528,1.567,5.518,3.1,5.672,8.436-2.247,10.316-4.2,3.422-10.784,2.168-14.508S456.56,212.426,452.734,219.448Z" transform="translate(-450.326 -214.537)" fill="#eea886"/>
        </g>
        <g id="Сгруппировать_3186" data-name="Сгруппировать 3186" transform="translate(58.565 29.113)">
          <path id="Контур_14145" data-name="Контур 14145" d="M452.226,220.471a6.177,6.177,0,0,1,1.806-7.561c4.02-3.219,11.432,2.432,12.267,2.647s5.575.541,3.182,8.863c-2.055,7.146-2.342,7.446-2.342,7.446s-1.534-4.139-2.4-4.77c-1.358-.985-4.333-.748-4.333-.748s1.418-3.765-.8-4.3S454.467,219.638,452.226,220.471Z" transform="translate(-451.619 -211.92)" fill="#252e3b"/>
        </g>
        <g id="Сгруппировать_3187" data-name="Сгруппировать 3187" transform="translate(69.159 39.547)">
          <path id="Контур_14146" data-name="Контур 14146" d="M462.182,223.619c.195-.517.827-2.736,2.731-1.434s-1.186,5.486-1.517,5.54S460.538,227.964,462.182,223.619Z" transform="translate(-461.631 -221.781)" fill="#eea886"/>
        </g>
        <path id="Контур_14147" data-name="Контур 14147" d="M465.135,231.407s-1.624,3.2-7.412,5.259c.02-.3.026-.614.031-.935,0-.279,0-.56-.011-.836A24.913,24.913,0,0,0,465.135,231.407Z" transform="translate(-392.699 -181.675)" fill="#a77860"/>
      </g>
      <path id="Контур_14148" data-name="Контур 14148" d="M216.894,328.988c-.509,3.415-10.708,22.211-14.014,38.54a3.129,3.129,0,0,1-.1.362,19.784,19.784,0,0,1-4.68-1.171c.078-2.408,2.313-21.737,3.467-25.34,1.212-3.776,4.868-11.767,4.725-14.332s-1.8-4.279-2.91-5.538c-.64-.724-4.638-6.553-7.917-11.546h0c-1.88-2.866-3.526-5.458-4.163-6.649a2.282,2.282,0,0,1-.279-.652c0-.921-14.453-25.924,11.27-21.824,0,0,.655,4.212.8,5.011.094.516,2.254,5.621,4.1,10.48,1.009,2.653,1.925,5.232,2.362,6.952.518,2.035,1.415,5.126,2.333,8.133v0c1.276,4.181,2.589,8.2,2.97,9C215.514,321.8,217.4,325.574,216.894,328.988Z" transform="translate(7.125 10.993)" fill="#eb4747"/>
      <path id="Контур_14149" data-name="Контур 14149" d="M192.345,302.036s-1.974,8.508-3.064,11.922-3.29,10.87-3.389,12.832-.1,6.246-.242,7.989.039,8.743-.424,12.3-2.3,20.794-2.442,21.884a.725.725,0,0,1-.015.075,16.128,16.128,0,0,1-4.213.134l-.013-.056c-1.018-4.748-2.1-22.343-2.174-25.176s.726-9.3.435-11.257-2.979-22.078-2.107-30.213,3.658-21.567,3.658-21.567S207.233,270.515,192.345,302.036Z" transform="translate(6.401 10.928)" fill="#eb4747"/>
      <path id="Контур_14150" data-name="Контур 14150" d="M203.964,290.774c-.073-.727-.829-5.808-1.482-9.083s-1.2-6.273-1.562-7.58c-.024-.086-.061-.236-.111-.437-.239-.966-.748-3.124-1.3-5.145-.038-.142-.077-.283-.116-.422v-.75c-.388-1.4.215-2.125.335-3.2a3.236,3.236,0,0,0-.062-1.088c0-.016-.006-.03-.01-.045a24.193,24.193,0,0,1-.735-4.394c0-2.979-1.379-17.329-1.379-17.329s4.585,2.148,5.239,5.342.84,10.251.912,11.7,2.346,12.347,2.564,14.817a31.8,31.8,0,0,0,1.052,6.246c.509,1.67.072,10.16.217,11.468S204.037,291.5,203.964,290.774Z" transform="translate(7.74 8.721)" fill="#eea886"/>
      <path id="Контур_14151" data-name="Контур 14151" d="M200.707,272.719c-.239-.966-.748-3.124-1.3-5.145-.012-1.646.189-3.228.219-4.369a4.963,4.963,0,0,0-.062-1.088c0-.016-.006-.03-.01-.045a31.749,31.749,0,0,1-.24-4.192c.194-.226,1.388-.113,1.388-.113S203.178,267.441,200.707,272.719Z" transform="translate(7.841 9.677)" fill="#c27e5d"/>
      <path id="Контур_14152" data-name="Контур 14152" d="M196.061,229.946s3.586-10.518-3.257-13.777-12.654,1.452-13.751,4-.807,7.187.129,10.42.8,8.156-1.234,9.8-3.83,5.23-5.481,8.265,14.638-7.151,14.638-7.151Z" transform="translate(6.275 7.196)" fill="#1c4054"/>
      <path id="Контур_14153" data-name="Контур 14153" d="M189.428,217.811s7.117,2.106,6.1,11.983-5.664,9.368-6.1,9.442-5.956.435-7.7-11.548S189.428,217.811,189.428,217.811Z" transform="translate(6.808 7.348)" fill="#eea886"/>
      <path id="Контур_14154" data-name="Контур 14154" d="M193.255,239.594s6.915,1.78,7.568,2.943.727,6.245,1.163,7.916,1.38,5.223.726,6.675-1.38,2.84-1.162,3.857a15.391,15.391,0,0,1,.291,6.028,27.315,27.315,0,0,0-.146,9.8c.654,3.124,1.308,5.883,1.38,6.392s-24.667,0-24.667,0,2.007-6.975,2.734-8.573-.654-7.772-1.308-9.225-3.485-7.334-3.485-7.989c0,0-3-10.239-2.733-10.6s.1-1.872,2.955-3.641c2.186-1.359,8.664-2.973,10.48-3.264S193.255,239.594,193.255,239.594Z" transform="translate(6.348 8.622)" fill="#eddad3"/>
      <path id="Контур_14155" data-name="Контур 14155" d="M192.64,236.457a18.737,18.737,0,0,0,.323,5.552c.63,2.034-7.118,1.936-7.748.387s.3-3.7-.55-6.96S192.64,236.457,192.64,236.457Z" transform="translate(6.988 8.309)" fill="#eea886"/>
      <path id="Контур_14156" data-name="Контур 14156" d="M200.19,247.813a17.623,17.623,0,0,1,2.717,5.314,7.749,7.749,0,0,1-1.493,6.969s-6.59-.331-8.914-.284-9.656.852-13.738,3.089c0,0-3.072-5.6-2.982-6.383s1.979-6.012,4.945-6.585c5.536-1.063,9.208,5.859,10.952,5.666S194.621,248.562,200.19,247.813Z" transform="translate(6.474 9.1)" fill="#eddad3"/>
      <path id="Контур_14157" data-name="Контур 14157" d="M187.619,222.248s3.867,6.152,7.937,7.579c0,0,2.223-10.323-6.956-12.486s-7.742,10.427-7.058,13.783A27.282,27.282,0,0,1,187.619,222.248Z" transform="translate(6.779 7.314)" fill="#1c4054"/>
      <path id="Контур_14158" data-name="Контур 14158" d="M185.66,236.728a4.816,4.816,0,0,0,6.418.307s-.3,1.874-2.888,2.117S185.66,236.728,185.66,236.728Z" transform="translate(7.049 8.455)" fill="#a77860"/>
      <path id="Контур_14159" data-name="Контур 14159" d="M195.234,309.207h0c-1.88-2.866-3.526-5.458-4.163-6.649v0s2.536-6.416,2.8-8.92S195.234,309.207,195.234,309.207Z" transform="translate(7.363 11.749)" fill="#cf3e3e"/>
      <path id="Контур_14160" data-name="Контур 14160" d="M184,240.454s3.2,5.526,6.742,6.411,3.441-4.5,2.405-7.129c0,0-.111-.283-3.586-.333A11.7,11.7,0,0,0,184,240.454Z" transform="translate(6.952 8.611)" fill="#eea886"/>
      <g id="Сгруппировать_3189" data-name="Сгруппировать 3189" transform="translate(184.973 293.349)">
        <path id="Контур_14161" data-name="Контур 14161" d="M178.5,282.866l-.155-.019.073-.6.156.019Z" transform="translate(-178.35 -282.248)" fill="#eddad3"/>
      </g>
      <g id="Сгруппировать_3191" data-name="Сгруппировать 3191" transform="translate(182.176 295.149)">
        <g id="Сгруппировать_3190" data-name="Сгруппировать 3190">
          <path id="Контур_14162" data-name="Контур 14162" d="M178.812,367.22c-.042-.4-.085-.8-.126-1.2l.161-.017q.062.606.125,1.2Zm-.249-2.408c-.04-.4-.08-.8-.12-1.2l.16-.017c.039.4.08.805.12,1.2Zm-.235-2.409c-.039-.4-.075-.8-.112-1.206l.161-.014q.054.6.111,1.2Zm-.218-2.411c-.035-.4-.068-.8-.1-1.207l.16-.014c.033.405.067.806.1,1.207Zm-.2-2.415c-.03-.4-.06-.8-.088-1.207l.16-.012c.03.4.058.806.089,1.207Zm-.169-2.416q-.04-.6-.074-1.21l.16-.008c.024.4.049.806.075,1.208Zm-.142-2.42c-.02-.4-.039-.806-.058-1.212l.162-.006q.027.606.058,1.208Zm-.108-2.422q-.022-.6-.041-1.213l.161,0q.019.606.041,1.21Zm-.073-2.423q-.014-.6-.022-1.213l.161,0c.005.405.014.809.022,1.212Zm-.036-2.424c0-.3,0-.6,0-.9v-.312h.161v.312q0,.451,0,.9Zm.167-2.423h-.161c0-.405.011-.813.018-1.213l.162,0C177.564,342.237,177.558,342.644,177.553,343.048Zm.049-2.419-.161-.005c.012-.4.025-.809.041-1.212l.161.007C177.628,339.82,177.614,340.227,177.6,340.63Zm.094-2.419-.161-.007c.02-.4.042-.809.066-1.21l.16.01C177.738,337.4,177.715,337.81,177.7,338.211Zm.143-2.416-.161-.011c.027-.4.058-.81.09-1.208l.161.013C177.9,334.988,177.867,335.393,177.839,335.795Zm.192-2.411-.16-.015c.013-.14.025-.278.039-.418,0-.033,0-.076,0-.13,0-.146-.012-.358-.035-.649l.16-.012c.024.294.036.51.036.66,0,.058,0,.106-.005.145Zm-.27-2.416c-.039-.363-.086-.766-.135-1.205l.16-.019c.051.44.1.843.135,1.206Zm-.277-2.409-.143-1.2.159-.019.144,1.2Zm-.287-2.408q-.07-.586-.142-1.2l.161-.018q.071.616.141,1.2Zm-.28-2.408q-.067-.592-.135-1.2l.16-.019q.068.611.135,1.205Zm-.268-2.41c-.042-.4-.086-.8-.127-1.2l.16-.017c.041.4.085.806.127,1.205Zm-.25-2.411q-.059-.6-.116-1.207l.161-.014q.056.6.116,1.205Zm-.226-2.415q-.052-.6-.1-1.207l.16-.013c.033.4.067.8.1,1.205Zm-.195-2.416c-.03-.413-.057-.82-.083-1.21l.161-.011c.025.39.053.8.083,1.208Zm-.153-2.421c-.022-.414-.041-.821-.057-1.212l.161-.007c.016.39.035.8.057,1.211Zm-.1-2.425c-.011-.417-.017-.826-.02-1.213h.161c0,.385.01.794.02,1.211Zm.146-2.422-.161,0c.007-.425.02-.833.039-1.213l.161.008C175.892,305.992,175.88,306.4,175.872,306.821ZM176,304.41l-.16-.016c.018-.186.038-.368.059-.541l.084-.663.16.019-.084.663C176.035,304.044,176.015,304.225,176,304.41Zm.293-2.4-.16-.02.15-1.2.159.02Zm.3-2.405-.16-.02.149-1.2.16.019Zm.3-2.405-.16-.02.149-1.2.16.019Zm.3-2.406-.161-.019.148-1.2.16.02Zm.3-2.4-.16-.02.148-1.2.16.019Zm.3-2.406-.16-.019.147-1.2.16.02Zm.3-2.405-.16-.02.147-1.2.16.018Zm.3-2.406-.161-.018.148-1.2.159.02Z" transform="translate(-175.706 -283.949)" fill="#eddad3"/>
        </g>
      </g>
      <g id="Сгруппировать_3192" data-name="Сгруппировать 3192" transform="translate(212.131 278.673)">
        <path id="Контур_14163" data-name="Контур 14163" d="M204.015,268.862s.047-1.109,2.054.032S204.015,268.862,204.015,268.862Z" transform="translate(-204.015 -268.378)" fill="#eea886"/>
      </g>
      <g id="Сгруппировать_3194" data-name="Сгруппировать 3194" transform="translate(183.096 267.449)">
        <path id="Контур_14164" data-name="Контур 14164" d="M176.862,279.833a18.809,18.809,0,1,1,21.776,15.276A18.808,18.808,0,0,1,176.862,279.833Z" transform="translate(-176.575 -257.771)" fill="#f8bb66"/>
        <path id="Контур_14165" data-name="Контур 14165" d="M198.82,294.883,192.331,257.9a18.809,18.809,0,0,1,6.489,36.987Z" transform="translate(-175.66 -257.771)" fill="#f8bb66"/>
        <path id="Контур_14166" data-name="Контур 14166" d="M176.862,279.743a18.818,18.818,0,0,1,10.852-20.428l6.306,35.941A18.816,18.816,0,0,1,176.862,279.743Z" transform="translate(-176.575 -257.681)" fill="#f8bb66"/>
        <path id="Контур_14167" data-name="Контур 14167" d="M180.849,275.962a14.295,14.295,0,1,1,13.918,14.663A14.294,14.294,0,0,1,180.849,275.962Z" transform="translate(-176.327 -257.523)" fill="#f89829"/>
        <g id="Сгруппировать_3193" data-name="Сгруппировать 3193" transform="translate(11.891 10.185)">
          <path id="Контур_14168" data-name="Контур 14168" d="M200.022,274.144a3,3,0,0,0-.4-.588,6.4,6.4,0,0,0-.677-.684,7,7,0,0,0-.9-.663,6.023,6.023,0,0,0-1.073-.53l-1.244,4.138.356.195a18.129,18.129,0,0,1,1.774,1.167,5.788,5.788,0,0,1,1.236,1.221,3.325,3.325,0,0,1,.589,1.409,3.808,3.808,0,0,1-.161,1.729,4.138,4.138,0,0,1-.924,1.694,3.667,3.667,0,0,1-1.425.934,4.924,4.924,0,0,1-1.785.281,8.008,8.008,0,0,1-1.991-.3l-.631,2.1-1.04-.313.643-2.138A10.6,10.6,0,0,1,189.8,282.4a9.009,9.009,0,0,1-1.985-2.025l1.6-1.613a3.7,3.7,0,0,0,.484.712,7.58,7.58,0,0,0,.817.835,9.5,9.5,0,0,0,1.092.83,8.13,8.13,0,0,0,1.3.7l1.245-4.138a2.569,2.569,0,0,0-.23-.145c-.08-.047-.157-.094-.229-.146a17.454,17.454,0,0,1-1.672-1.145,4.838,4.838,0,0,1-1.084-1.144,3.055,3.055,0,0,1-.48-1.268,3.557,3.557,0,0,1,.16-1.51,4.389,4.389,0,0,1,.863-1.637,3.953,3.953,0,0,1,1.353-1.021,4.75,4.75,0,0,1,1.709-.424,7.015,7.015,0,0,1,1.947.161l.606-2.019,1.04.311-.607,2.021a8.044,8.044,0,0,1,2.243,1.24,9.117,9.117,0,0,1,1.62,1.643Zm-6.755-1.463a1.5,1.5,0,0,0,.212,1.436,5.934,5.934,0,0,0,1.566,1.278l1.185-3.938a3.023,3.023,0,0,0-1.97.029A1.806,1.806,0,0,0,193.267,272.68Zm3.782,8.376a1.544,1.544,0,0,0-.3-1.541,7.871,7.871,0,0,0-1.715-1.4l-1.191,3.96a3.809,3.809,0,0,0,2.114.112A1.578,1.578,0,0,0,197.048,281.056Z" transform="translate(-187.813 -267.396)" fill="#f8c681"/>
        </g>
        <path id="Контур_14169" data-name="Контур 14169" d="M201.6,293.922a18.814,18.814,0,0,0-6.339-36.129Z" transform="translate(-175.489 -257.769)" fill="#f8f8f8" style="mix-blend-mode: soft-light;isolation: isolate"/>
        <path id="Контур_14170" data-name="Контур 14170" d="M193.408,295.339,187.1,259.4a18.9,18.9,0,0,1,4.423-1.348q.556-.1,1.11-.161l6.489,36.987c-.361.086-.728.161-1.1.226A18.928,18.928,0,0,1,193.408,295.339Z" transform="translate(-175.964 -257.764)" fill="#f8f8f8" style="mix-blend-mode: soft-light;isolation: isolate"/>
      </g>
      <path id="Контур_14171" data-name="Контур 14171" d="M176.231,243.7a19.043,19.043,0,0,0-4.544,5.617c-1.961,3.631-6.464,10.023-7.336,12.128s-3.776,5.66-4.194,8.394c-.408,2.675.679,3.657,2.422,4.819s14.113,4.965,14.113,4.965,2.191-3.507,1.079-3.745c-2.019-.431-6.834-3.423-7.65-3.9-.886-.524-3.074-2.388-1.984-3.26s8.488-11.7,10.013-13.8,4.285-7.263,3.269-9.878S178.031,242.711,176.231,243.7Z" transform="translate(5.561 8.819)" fill="#eea886"/>
      <path id="Контур_14172" data-name="Контур 14172" d="M174.549,273.462a2.013,2.013,0,0,0,1.115.222c.925-.16,1.8-1.272,2.931-.576s-.225,4.662-.879,5.208-2.466.053-4.63-1.67S174.549,273.462,174.549,273.462Z" transform="translate(6.278 10.557)" fill="#eea886"/>
      <path id="Контур_14173" data-name="Контур 14173" d="M178.015,272.923a41.216,41.216,0,0,1,4.154.878c1.9.511,4.007,1.444,4.054,1.843.051.444-1.984-.242-3.906-.632-1.769-.357-1.485-.006-1.485-.006s-.075-.1,1.771.639c1.986.8,3.935,1.809,3.933,2.287,0,.234-.131.324-.9.145.42.194.423.328.353.5-.358.894-3.472.149-4.709-.146.948.233,1.618.5,1.019.914-.685.475-5.037-.766-6.64-1.07C173.909,277.948,178.015,272.923,178.015,272.923Z" transform="translate(6.442 10.559)" fill="#eea886"/>
      <g id="Сгруппировать_3195" data-name="Сгруппировать 3195" transform="translate(217.348 278.995)">
        <path id="Контур_14174" data-name="Контур 14174" d="M208.982,268.844s2.871-.668,3.793.714a5.385,5.385,0,0,1,.728,3.986c-.231.824-.975,2.943-1.946,2.507C208.441,274.653,208.982,268.844,208.982,268.844Z" transform="translate(-208.946 -268.683)" fill="#eea886"/>
      </g>
      <g id="Сгруппировать_3196" data-name="Сгруппировать 3196" transform="translate(218.681 277.541)">
        <path id="Контур_14175" data-name="Контур 14175" d="M211.75,268.953s-.4-1.94-1.179-1.607-.075,1.61-.075,1.61Z" transform="translate(-210.205 -267.308)" fill="#eea886"/>
      </g>
      <g id="Сгруппировать_3197" data-name="Сгруппировать 3197" transform="translate(181.321 284.164)">
        <path id="Контур_14176" data-name="Контур 14176" d="M176.553,278.466c-.53,2.148-.839,2.165-.981,2.173h-.015c-.241,0-.361-.338-.431-.595a8.239,8.239,0,0,1-.229-2.15,22.755,22.755,0,0,1,.5-4.238c0-.019.014-.084.016-.091l.122.032h0l.117.017a23.656,23.656,0,0,0-.507,4.4,7.846,7.846,0,0,0,.218,1.968c.108.394.2.414.2.414.018,0,.111-.025.274-.406a10.406,10.406,0,0,0,.481-1.564A2.339,2.339,0,0,0,176.553,278.466Z" transform="translate(-174.898 -273.567)" fill="#23344a"/>
      </g>
      <path id="Прямоугольник_1176" data-name="Прямоугольник 1176" d="M6.592,0h116.6a6.591,6.591,0,0,1,6.591,6.591V94.21a6.592,6.592,0,0,1-6.592,6.592H6.591A6.591,6.591,0,0,1,0,94.211V6.592A6.592,6.592,0,0,1,6.592,0Z" transform="translate(256.95 260.108)" opacity="0.73" fill="url(#linear-gradient-28)"/>
      <g id="Сгруппировать_3199" data-name="Сгруппировать 3199" transform="translate(379.728 128.871)">
        <rect id="Прямоугольник_1177" data-name="Прямоугольник 1177" width="56.917" height="25.918" fill="url(#linear-gradient-4)"/>
        <g id="Сгруппировать_3198" data-name="Сгруппировать 3198" transform="translate(11.846 6.152)">
          <path id="Контур_14177" data-name="Контур 14177" d="M324.813,278.689a2.755,2.755,0,0,1-1.157,2.331,3.947,3.947,0,0,1-1.252.6,5.421,5.421,0,0,1-1.517.206h-5.88V269.654h6.515a2.4,2.4,0,0,1,1.148.275,2.881,2.881,0,0,1,.875.711,3.254,3.254,0,0,1,.557.994,3.328,3.328,0,0,1-.249,2.8,2.718,2.718,0,0,1-1.3,1.157,3.133,3.133,0,0,1,1.655,1.107A3.2,3.2,0,0,1,324.813,278.689Zm-7.44-7.012v3.07h3.154a1.4,1.4,0,0,0,1.02-.413,1.508,1.508,0,0,0,.42-1.131,1.565,1.565,0,0,0-.385-1.114,1.254,1.254,0,0,0-.952-.412Zm5.057,6.566a1.776,1.776,0,0,0-.111-.624,1.719,1.719,0,0,0-.3-.523,1.415,1.415,0,0,0-.447-.353,1.244,1.244,0,0,0-.565-.127h-3.635v3.206h3.514a1.522,1.522,0,0,0,.609-.122,1.455,1.455,0,0,0,.489-.333,1.59,1.59,0,0,0,.325-.507A1.61,1.61,0,0,0,322.43,278.243Z" transform="translate(-315.007 -269.654)" fill="#fff"/>
          <path id="Контур_14178" data-name="Контур 14178" d="M331.177,279.822a2.724,2.724,0,0,0,1.414-.343,2.768,2.768,0,0,0,.926-.892,3.678,3.678,0,0,0,.5-1.261,7.253,7.253,0,0,0,.146-1.464v-6.207h2.349v6.207a8.913,8.913,0,0,1-.3,2.348,5.408,5.408,0,0,1-.944,1.92,4.522,4.522,0,0,1-1.655,1.3,6.331,6.331,0,0,1-4.894-.025,4.628,4.628,0,0,1-1.655-1.337,5.353,5.353,0,0,1-.917-1.928,9.115,9.115,0,0,1-.283-2.28v-6.207h2.366v6.207a7.434,7.434,0,0,0,.145,1.482,3.694,3.694,0,0,0,.5,1.26,2.58,2.58,0,0,0,2.306,1.218Z" transform="translate(-314.376 -269.654)" fill="#fff"/>
          <path id="Контур_14179" data-name="Контур 14179" d="M339.613,269.654l3,5.863,3.052-5.863h2.554l-4.423,7.921v4.251h-2.349v-4.285l-4.406-7.887Z" transform="translate(-313.726 -269.654)" fill="#fff"/>
        </g>
      </g>
      <rect id="Прямоугольник_1178" data-name="Прямоугольник 1178" width="43.853" height="3.678" transform="translate(266.032 273.871)" fill="#87c9ff"/>
      <rect id="Прямоугольник_1179" data-name="Прямоугольник 1179" width="32.661" height="3.678" transform="translate(266.032 282.475)" fill="#87c9ff"/>
      <rect id="Прямоугольник_1180" data-name="Прямоугольник 1180" width="37.193" height="3.678" transform="translate(266.032 291.078)" fill="#87c9ff"/>
      <g id="Сгруппировать_3200" data-name="Сгруппировать 3200" transform="translate(264.974 307.34)">
        <path id="Контур_14180" data-name="Контур 14180" d="M364.684,342.223H253.956V295.47H364.684Zm-108.612-2.116h106.5V297.586h-106.5Z" transform="translate(-253.956 -295.47)" fill="#78c2ff"/>
      </g>
      <g id="Сгруппировать_3202" data-name="Сгруппировать 3202" transform="translate(309.705 250.479)">
        <g id="Сгруппировать_3201" data-name="Сгруппировать 3201" transform="translate(0 0)">
          <path id="Контур_14181" data-name="Контур 14181" d="M305.991,241.76s7.406,1.323,7.471,7.6-5.673,15.356-9.4,14.684-7.971-3.984-7.827-7.8,1.2-8.827,2.92-11.579S303.922,241.624,305.991,241.76Z" transform="translate(-296.23 -241.733)" fill="#eea886"/>
        </g>
      </g>
      <g id="Сгруппировать_3204" data-name="Сгруппировать 3204" transform="translate(309.919 250.03)">
        <g id="Сгруппировать_3203" data-name="Сгруппировать 3203" transform="translate(0 0)">
          <path id="Контур_14182" data-name="Контур 14182" d="M296.48,253.36s.014,1.28,2.561,2.294,7.228-.405,8.4-.17,1.523-.331,1.523-.331l.083,1.251,1,.677s.7-3.332,2.79-3.623,3.837-9.854-5.187-11.664c0,0-6.679-1.815-8.4,1.575S296.157,250.973,296.48,253.36Z" transform="translate(-296.432 -241.308)" fill="#e8734d"/>
        </g>
      </g>
      <g id="Сгруппировать_3205" data-name="Сгруппировать 3205" transform="translate(332.427 296.699)">
        <path id="Контур_14183" data-name="Контур 14183" d="M318.543,288.361a2.239,2.239,0,0,0,1.149-.525c.729-.743.8-2.314,2.264-2.42s2.823,4.344,2.588,5.261-2.185,1.647-5.253,1.5S318.543,288.361,318.543,288.361Z" transform="translate(-317.703 -285.414)" fill="#eea886"/>
      </g>
      <g id="Сгруппировать_3206" data-name="Сгруппировать 3206" transform="translate(336.14 293.823)">
        <path id="Контур_14184" data-name="Контур 14184" d="M321.26,285.68a46.049,46.049,0,0,1,4.31-1.9c2.045-.775,4.572-1.323,4.847-.971.611.781-1.774,1.332-3.756,2.229a15.356,15.356,0,0,0-1.511.694s-.135-.044,2.01-.573c2.307-.57,4.717-.925,5.025-.493.15.21.42.942-.549.911.5-.1.425-.175.475.026.258,1.039-3.03,2.388-4.335,2.925,1.005-.406,1.781-.6,1.511.162-.308.873-5.032,2.579-6.673,3.348C320.824,292.871,321.26,285.68,321.26,285.68Z" transform="translate(-321.213 -282.695)" fill="#eea886"/>
      </g>
      <g id="Сгруппировать_3207" data-name="Сгруппировать 3207" transform="translate(273.562 268.826)">
        <path id="Контур_14185" data-name="Контур 14185" d="M289.623,259.221a56.032,56.032,0,0,0-7.894,0c-3.266.334-7.778,3.007-10.51,3.779s-9.322,5.2-9.144,5.807a49.189,49.189,0,0,0,7.452,13.669C273.567,287.487,289.623,259.221,289.623,259.221Z" transform="translate(-262.072 -259.072)" fill="#285173"/>
      </g>
      <g id="Сгруппировать_3208" data-name="Сгруппировать 3208" transform="translate(282.073 271.88)">
        <path id="Контур_14186" data-name="Контур 14186" d="M279.17,261.958s-4.989,3.694-6.726,7.079a27.4,27.4,0,0,0-2.329,7.417Z" transform="translate(-270.115 -261.958)" fill="#193247"/>
      </g>
      <g id="Сгруппировать_3211" data-name="Сгруппировать 3211" transform="translate(303.777 265.563)">
        <g id="Сгруппировать_3210" data-name="Сгруппировать 3210">
          <g id="Сгруппировать_3209" data-name="Сгруппировать 3209">
            <path id="Контур_14187" data-name="Контур 14187" d="M296.57,255.988s-4.481,3.806-5.756,3.495,4.394,8.049,4.394,8.049,5.4-5.313,6.614-5.473S296.57,255.988,296.57,255.988Z" transform="translate(-290.627 -255.988)" fill="#eea886"/>
          </g>
        </g>
      </g>
      <g id="Сгруппировать_3212" data-name="Сгруппировать 3212" transform="translate(308.372 278.562)">
        <path id="Контур_14188" data-name="Контур 14188" d="M296.622,270.3c-1.525.922-1.781,1.218-1.6,5.583s1.989,7.882,2.123,9.085,2.557,13.129,3.225,13.8,8.653-.889,10.267-1.389c2.418-.748,12.649-4.213,12.649-4.213l-2.251-4.693s-12.914,2.88-13.331,1.871-1.426-9.487-1.783-11.327.265-4.734-1.934-9.1C302.014,266.005,296.622,270.3,296.622,270.3Z" transform="translate(-294.97 -268.273)" fill="#285173"/>
      </g>
      <g id="Сгруппировать_3213" data-name="Сгруппировать 3213" transform="translate(268.962 303.453)">
        <path id="Контур_14189" data-name="Контур 14189" d="M283.644,301.771s2.737,2.913,3.5,3.859a152.707,152.707,0,0,1,13.271,20.457c.891,2.078-4.412,16.777-6.591,21.911-1.143,2.693-8.7,21.244-8.462,21.66s-7.994.69-11.675-1.211c0,0,5.293-15.682,6.408-18.756,1.685-4.644,7.523-17.5,7.7-18.752s-9.439-11.529-12.646-13.49-11.044-8.906-11.935-9.8-5.938-3.266-5.463-7.778a15.777,15.777,0,0,1,3.83-8.076Z" transform="translate(-257.724 -291.797)" fill="#326ea0"/>
      </g>
      <g id="Сгруппировать_3214" data-name="Сгруппировать 3214" transform="translate(233.244 302.7)">
        <path id="Контур_14190" data-name="Контур 14190" d="M271.216,312.978s-.5,1.318-1.2,3.166c-1.51,3.967-3.951,10.369-4.357,11.38-.593,1.487-3.563,7.9-4.988,9.146s-24.879,29.393-24.939,29.63-11.224-1.528-11.759-3.251c0,0,15.144-19.314,17.1-21.748s6.056-6.057,7.423-11.817,11.16-27.907,11.191-28.739c0,0,1.577-6.828,3.862-8.907s10.6.357,11.9,4.69S271.216,312.978,271.216,312.978Z" transform="translate(-223.969 -291.085)" fill="#326ea0"/>
      </g>
      <g id="Сгруппировать_3215" data-name="Сгруппировать 3215" transform="translate(303.559 268.271)">
        <path id="Контур_14191" data-name="Контур 14191" d="M290.421,259.294l1.893-.747a14.219,14.219,0,0,1,7.541,4.929l-.238,1.145S292.329,263.04,290.421,259.294Z" transform="translate(-290.421 -258.547)" fill="#d4d8e8"/>
      </g>
      <g id="Сгруппировать_3216" data-name="Сгруппировать 3216" transform="translate(309.293 291.217)">
        <path id="Контур_14192" data-name="Контур 14192" d="M297.4,285.915a7.586,7.586,0,0,1-.892,1.091c-.135.116-.3.254-.488.407l0,0-.18-7.183,1.035,3.178C297.01,283.822,297.4,285.915,297.4,285.915Z" transform="translate(-295.84 -280.233)" fill="#a9adba"/>
      </g>
      <g id="Сгруппировать_3217" data-name="Сгруппировать 3217" transform="translate(274.049 318.978)">
        <path id="Контур_14193" data-name="Контур 14193" d="M268.975,312.083s-.5,1.318-1.2,3.166c-1.6-1.837-5.239-8.78-5.239-8.78.237.169,1,.886,1.176,1.043S268.975,312.083,268.975,312.083Z" transform="translate(-262.532 -306.469)" fill="#215b8a"/>
      </g>
      <g id="Сгруппировать_3219" data-name="Сгруппировать 3219" transform="translate(318.637 261.843)">
        <g id="Сгруппировать_3218" data-name="Сгруппировать 3218">
          <path id="Контур_14194" data-name="Контур 14194" d="M307.316,254.271c.168-.544-.238-2.624-1.566-1.439s-1.322,3.837-.572,4.053S306.89,255.651,307.316,254.271Z" transform="translate(-304.671 -252.472)" fill="#eea886"/>
        </g>
      </g>
      <g id="Сгруппировать_3221" data-name="Сгруппировать 3221" transform="translate(309.858 251.341)">
        <g id="Сгруппировать_3220" data-name="Сгруппировать 3220">
          <path id="Контур_14195" data-name="Контур 14195" d="M302.836,243.172s-6.427-4.57-6.462,11.011Z" transform="translate(-296.374 -242.548)" fill="#e8734d"/>
        </g>
      </g>
      <g id="Сгруппировать_3222" data-name="Сгруппировать 3222" transform="translate(272.824 268.968)">
        <path id="Контур_14196" data-name="Контур 14196" d="M299.407,287.137a7.586,7.586,0,0,1-.892,1.091c-.135.116-.3.254-.488.407l0,0a75.269,75.269,0,0,1-7.761,5.291c-2.079,1.129-6.02,10.636-6.02,10.636s-18.593-1.254-22.868-10.873a84.949,84.949,0,0,1,5.789-10.778c2.762-4.008,8.818-18.437,12.025-20.485s5.968-3.384,12.291-3.206a13.258,13.258,0,0,1,9.828,5.2s4.81,5.166,5.283,7.9C307,274.664,301.778,283.833,299.407,287.137Z" transform="translate(-261.374 -259.206)" fill="#285173"/>
      </g>
    </g>
  </g>
</svg>
